<?xml version="1.0" encoding="UTF-8" standalone="no"?>
<!-- Created with Inkscape (http://www.inkscape.org/) -->
<svg
   xmlns:dc="http://purl.org/dc/elements/1.1/"
   xmlns:cc="http://web.resource.org/cc/"
   xmlns:rdf="http://www.w3.org/1999/02/22-rdf-syntax-ns#"
   xmlns:svg="http://www.w3.org/2000/svg"
   xmlns="http://www.w3.org/2000/svg"
   xmlns:sodipodi="http://sodipodi.sourceforge.net/DTD/sodipodi-0.dtd"
   xmlns:inkscape="http://www.inkscape.org/namespaces/inkscape"
   id="svg2"
   sodipodi:version="0.32"
   inkscape:version="0.45.1"
   width="500"
   height="59.353268"
   version="1.0"
   sodipodi:docbase="/home/butze/Desktop"
   sodipodi:docname="DerStandard.svg"
   inkscape:output_extension="org.inkscape.output.svg.inkscape">
  <metadata
     id="metadata7">
    <rdf:RDF>
      <cc:Work
         rdf:about="">
        <dc:format>image/svg+xml</dc:format>
        <dc:type
           rdf:resource="http://purl.org/dc/dcmitype/StillImage" />
      </cc:Work>
    </rdf:RDF>
  </metadata>
  <defs
     id="defs5" />
  <sodipodi:namedview
     inkscape:window-height="708"
     inkscape:window-width="891"
     inkscape:pageshadow="2"
     inkscape:pageopacity="0.0"
     guidetolerance="10.0"
     gridtolerance="10.0"
     objecttolerance="10.0"
     borderopacity="1.0"
     bordercolor="#666666"
     pagecolor="#ffffff"
     id="base"
     inkscape:zoom="1.2723626"
     inkscape:cx="246.95043"
     inkscape:cy="121.64636"
     inkscape:window-x="191"
     inkscape:window-y="37"
     inkscape:current-layer="svg2" />
  <path
     style="fill:#000000"
     d="M 166.27115,59.321704 C 164.65742,59.118084 162.89283,58.681844 159.50599,57.649214 C 157.57767,57.061284 156.29789,56.762614 154.46824,56.473494 C 153.92411,56.387504 153.35631,56.236824 153.20644,56.138634 C 152.67291,55.789044 152.63757,55.649814 150.01534,43.566404 C 149.81189,42.628864 149.56924,41.510774 149.47612,41.081754 C 149.29291,40.237594 149.33944,39.578714 149.61163,39.162814 C 149.96714,38.619624 151.10043,38.434094 151.61078,38.835534 C 151.96997,39.118074 152.21706,39.604024 152.67074,40.920244 C 155.09155,47.943434 159.70712,53.302514 164.88615,55.103364 C 166.39962,55.629624 167.64966,55.802384 169.44959,55.734054 C 172.51359,55.617734 174.82148,54.709994 176.78947,52.847124 C 178.93427,50.816894 179.87739,48.656884 179.98604,45.526024 C 180.06601,43.221554 179.76073,41.909244 178.80194,40.435894 C 177.77616,38.859614 176.17437,37.616824 173.30265,36.169144 C 171.54569,35.283434 170.87829,34.984464 166.27115,33.019264 C 159.77507,30.248324 157.3248,28.938744 155.08466,27.040494 C 152.54195,24.885854 151.05932,22.011374 150.61402,18.372974 C 150.47454,17.233324 150.47441,14.396544 150.61378,13.416174 C 151.45762,7.4805344 155.49046,2.6135344 161.10406,0.75603435 C 163.05481,0.11054435 163.87359,-0.0022756491 166.59076,3.435088e-05 C 168.78187,0.0018943509 169.22739,0.031704351 170.15978,0.23883435 C 171.7169,0.58475435 172.81506,0.93886435 174.84745,1.7504044 C 175.84358,2.1481644 176.86859,2.5301244 177.12526,2.5992044 C 178.66599,3.0138744 179.70499,2.9300144 181.06351,2.2813644 C 182.20569,1.7360044 182.8578,1.7006144 183.31629,2.1591044 C 183.73179,2.5746144 183.79472,3.1362844 183.63836,5.0343344 C 183.46405,7.1503744 183.52597,7.8369744 184.44719,14.002134 C 184.53912,14.617384 184.62212,15.778374 184.63164,16.582104 C 184.6487,18.023594 184.64518,18.047204 184.37222,18.321304 C 184.03272,18.662204 183.42231,18.759244 182.8398,18.564934 C 182.28532,18.379984 182.06295,17.967544 181.55726,16.186154 C 180.74495,13.324694 179.59407,11.110524 177.82003,8.9960844 C 175.61774,6.3712444 172.38704,4.4720744 168.94568,3.7792744 C 166.15172,3.2168144 163.68041,3.4689344 161.55306,4.5334544 C 159.52605,5.5477744 158.14326,7.1202644 157.46877,9.1780544 C 157.18911,10.031274 157.16244,10.244594 157.16541,11.605024 C 157.16791,12.746584 157.21486,13.246544 157.36549,13.735784 C 158.41757,17.152814 161.44811,19.347844 169.20094,22.308264 C 174.66679,24.395404 176.52255,25.187994 178.23692,26.167494 C 182.28837,28.482264 184.8285,32.100264 185.88968,37.067594 C 186.1173,38.133094 186.14005,38.500704 186.14025,41.116034 C 186.14048,44.194594 186.089,44.688544 185.54797,46.798404 C 185.0155,48.874854 184.0876,50.900254 182.90434,52.568854 C 182.19422,53.570234 180.4321,55.299384 179.32204,56.084114 C 177.14724,57.621544 174.55438,58.628264 171.4915,59.124434 C 170.50562,59.284144 167.01793,59.415934 166.27115,59.321704 z M 155.38057,54.214154 C 155.52962,54.109754 155.61735,53.937514 155.61735,53.749274 C 155.61735,53.421154 151.11083,39.922844 150.94639,39.758394 C 150.8904,39.702404 150.74388,39.688564 150.6208,39.727634 C 150.46049,39.778514 150.397,39.887244 150.397,40.110874 C 150.397,40.375164 150.90236,42.673214 152.58607,50.065214 C 153.35294,53.432024 153.37596,53.503614 153.82625,53.924084 C 154.03902,54.122744 154.5902,54.325884 155.03432,54.369304 C 155.09453,54.375184 155.25034,54.305374 155.38057,54.214154 z M 182.54088,46.812774 C 183.11752,44.390604 183.07756,42.370634 182.41341,40.369014 C 181.46344,37.505954 179.05508,35.044614 175.08816,32.882634 C 173.62359,32.084444 172.81919,31.710224 167.82322,29.502904 C 164.11371,27.863974 161.38961,26.528894 159.94778,25.643164 C 156.01098,23.224734 154.15892,20.724154 153.41688,16.825384 C 153.15382,15.443244 153.15769,12.382514 153.42423,11.019064 C 153.64134,9.9084144 154.20673,8.1832044 154.62246,7.3628044 C 154.80585,7.0008844 154.85407,6.8039544 154.77792,6.7278044 C 154.58842,6.5383044 154.38727,6.8128544 153.70697,8.1895344 C 152.47777,10.676954 151.88853,12.985014 151.88853,15.312324 C 151.88853,20.796664 154.25951,24.545984 159.81043,27.839544 C 161.54897,28.871074 163.75901,29.937124 167.33652,31.469854 C 171.38148,33.202864 174.96475,34.977574 176.57197,36.043964 C 179.56367,38.028954 181.26978,40.295564 181.78491,42.969464 C 181.95208,43.837184 181.98098,45.899594 181.84149,47.007554 C 181.7712,47.565924 181.78515,47.695144 181.92452,47.776514 C 182.22144,47.949884 182.29908,47.828484 182.54088,46.812774 z M 181.67796,11.288704 C 181.56334,10.169964 181.11492,8.5804244 180.64015,7.6098544 C 180.2878,6.8895344 180.01766,6.5261444 179.31966,5.8335144 C 178.57896,5.0984844 178.26991,4.8792244 177.3373,4.4270244 C 175.83259,3.6974244 172.66342,2.8795544 172.66342,3.2208244 C 172.66342,3.2829944 173.011,3.5107544 173.43582,3.7269644 C 175.24076,4.6456144 177.19836,6.2086744 178.50602,7.7753344 C 179.35439,8.7917244 180.4672,10.394284 181.0358,11.418474 C 181.23976,11.785844 181.41527,11.977734 181.54742,11.977804 C 181.73115,11.977904 181.74245,11.918224 181.67796,11.288704 z M 314.09251,59.026244 C 313.41614,58.730764 313.49733,58.821154 307.43389,51.613674 C 306.76004,50.812674 304.69524,48.362734 302.84544,46.169364 C 300.99564,43.975984 299.07796,41.699454 298.58392,41.110394 C 298.08989,40.521324 295.64624,37.620834 293.15359,34.664844 C 290.66094,31.708854 288.00797,28.560284 287.2581,27.668024 C 285.31892,25.360594 284.75358,24.997184 284.35393,25.801204 C 284.16399,26.183364 284.15536,26.686824 284.15536,37.387204 C 284.15536,49.190624 284.17237,49.680554 284.6547,51.763854 C 284.94801,53.030744 285.34766,53.886454 285.96639,54.572334 C 286.74225,55.432404 287.30776,55.660024 289.85513,56.137554 C 291.22108,56.393604 291.61418,56.772334 291.51421,57.735944 C 291.42693,58.577114 291.23792,58.674014 289.80347,58.613034 C 289.15804,58.585594 288.12656,58.475424 287.5113,58.368194 C 285.78773,58.067834 281.04199,58.088904 278.72192,58.407224 C 276.44441,58.719714 276.27548,58.715114 275.89047,58.330104 C 275.71919,58.158824 275.57402,57.907124 275.56788,57.770774 C 275.55981,57.591734 275.52032,57.641244 275.42568,57.949024 C 275.18924,58.717974 274.97284,58.739954 271.31754,58.366244 C 267.30331,57.955844 263.69639,57.978834 259.85015,58.439334 C 258.78741,58.566574 257.79348,58.639454 257.64142,58.601284 C 257.03909,58.450114 256.82043,57.254784 257.30624,56.768974 C 257.45188,56.623334 258.12014,56.246174 258.79127,55.930824 C 260.11489,55.308894 260.86325,54.693494 261.16021,53.982764 C 261.24941,53.769264 261.34881,53.245304 261.38111,52.818424 C 261.47563,51.568654 261.3029,51.001644 259.55886,46.836504 C 258.50325,44.315454 258.03319,43.647014 257.07075,43.298234 C 256.52541,43.100614 245.4855,43.011404 244.20363,43.194264 C 242.66846,43.413254 242.06091,44.001024 241.34122,45.963504 C 239.814,50.127944 239.333,51.597384 239.27964,52.261624 C 239.12867,54.141244 240.30447,55.293574 243.03254,55.939624 C 245.63138,56.555074 245.85497,56.676314 245.85497,57.470054 C 245.85497,58.119924 245.61256,58.503304 245.10557,58.655194 C 244.7445,58.763374 244.25405,58.735144 241.98997,58.475884 C 238.3881,58.063424 235.39574,58.043744 233.03359,58.417004 C 231.30287,58.690484 230.60448,58.673304 230.28046,58.349284 C 230.01457,58.083394 229.91325,57.357264 230.08438,56.944114 C 230.24302,56.561094 230.45079,56.419474 231.41908,56.034304 C 232.3898,55.648164 232.90516,55.285524 233.67114,54.449594 C 234.63134,53.401694 235.14812,52.397414 237.70894,46.602734 C 238.39517,45.049944 239.16199,43.324024 239.41302,42.767364 C 239.66404,42.210704 240.43112,40.484794 241.11763,38.932004 C 241.80413,37.379214 242.57121,35.653294 242.82223,35.096634 C 243.07326,34.539974 243.84033,32.814064 244.52684,31.261274 C 245.21335,29.708484 245.98066,27.982564 246.23196,27.425904 C 246.84357,26.071104 249.63051,19.800504 250.06732,18.796334 C 251.1346,16.342844 251.95833,14.570954 252.10907,14.404384 C 252.34482,14.143894 252.99792,14.157864 253.34494,14.430834 C 253.6614,14.679764 253.8809,15.119264 254.86007,17.464614 C 255.25149,18.402144 255.70574,19.480844 255.86953,19.861714 C 256.03331,20.242584 256.99276,22.495864 258.00164,24.868994 C 261.06321,32.070564 262.5637,35.593994 263.37803,37.493744 C 263.80503,38.489874 264.98069,41.246544 265.99063,43.619674 C 270.28371,53.707484 270.1476,53.419634 271.097,54.418174 C 271.77739,55.133774 272.53146,55.551984 273.93019,55.989434 C 274.83202,56.271484 275.36598,56.588644 275.36598,56.842254 C 275.36598,56.902824 275.48907,56.855554 275.63951,56.737214 C 275.78996,56.618874 276.31229,56.328804 276.80027,56.092614 C 277.75717,55.629444 278.73755,54.817224 279.17374,54.126264 C 280.08911,52.676224 280.94386,48.045304 281.22194,43.029324 C 281.36107,40.519724 281.36171,26.132754 281.22276,24.549384 C 280.96066,21.562634 280.46448,20.163074 279.26577,19.029384 C 278.48458,18.290574 277.59992,17.889254 276.29584,17.682124 C 275.72324,17.591174 275.1598,17.457464 275.04377,17.385004 C 274.54912,17.076084 274.52319,15.900614 275.00051,15.423294 C 275.20914,15.214664 275.35904,15.174114 275.92045,15.174454 C 276.28934,15.174674 277.02264,15.245754 277.55,15.332404 C 278.79142,15.536364 280.08656,15.533984 282.27777,15.323694 C 283.25185,15.230214 284.45967,15.172654 284.96183,15.195784 C 286.46713,15.265114 286.52699,15.316474 290.02703,19.542104 C 292.05018,21.984664 293.66096,23.925824 299.44219,30.888394 C 303.58369,35.876144 305.88508,38.650124 308.28095,41.542184 C 310.54639,44.276784 311.41826,45.111204 312.01014,45.111204 C 312.38531,45.111204 312.5208,44.947554 312.73283,44.238274 C 312.87895,43.749524 312.90781,42.567174 312.9459,35.509794 C 313.0069,24.208834 312.89473,22.350604 312.04631,20.607484 C 311.3237,19.122804 309.64879,18.094254 307.11428,17.578724 C 305.36711,17.223344 305.1966,17.108374 305.1966,16.285654 C 305.1966,15.791144 305.23492,15.693434 305.52438,15.449864 C 305.81152,15.208254 305.94695,15.174464 306.61639,15.177424 C 307.03672,15.179274 307.88401,15.253574 308.49927,15.342524 C 310.49257,15.630694 313.96098,15.654144 316.74286,15.398244 C 320.15071,15.084764 320.8082,15.105614 321.09575,15.536244 C 321.1388,15.600714 321.17476,15.907344 321.17565,16.217634 C 321.17776,16.946604 320.98084,17.145924 319.79229,17.617814 C 318.67339,18.062054 318.19467,18.358464 317.58802,18.982664 C 317.01654,19.570664 316.62994,20.303164 316.36497,21.299974 C 316.05002,22.484804 315.97328,25.260414 315.7906,42.074874 C 315.69476,50.896574 315.57738,57.831244 315.51944,58.095694 C 315.40632,58.612034 315.24046,58.973534 315.06204,59.092674 C 314.88377,59.211704 314.44884,59.181904 314.09251,59.026244 z M 233.95686,56.671074 C 236.12575,56.106154 237.12055,54.636994 237.3202,51.703894 C 237.3656,51.037004 237.38398,50.455414 237.36106,50.411464 C 237.23251,50.165094 237.01095,50.430454 236.69395,51.210494 C 235.68042,53.704464 234.62254,55.261464 233.26405,56.258684 C 232.98177,56.465904 232.75081,56.679304 232.75081,56.732914 C 232.75081,56.877584 233.26527,56.851214 233.95686,56.671074 z M 279.90346,56.408594 C 281.59719,55.560554 282.44143,53.831274 282.24613,51.610014 C 282.15012,50.518094 281.83496,48.966614 281.70498,48.946104 C 281.64639,48.936864 281.51425,49.519024 281.41134,50.239794 C 281.03692,52.862274 280.28998,54.881434 279.26419,56.044094 C 278.58063,56.818854 278.81602,56.953074 279.90346,56.408594 z M 262.47996,54.917764 C 262.75794,54.639784 263.06975,54.249254 263.17288,54.049924 C 263.69352,53.043584 263.78379,51.517144 263.42644,49.762334 C 263.22022,48.749614 263.08103,48.346194 262.28114,46.442924 C 262.10875,46.032754 261.14119,43.731534 260.13101,41.329104 C 258.02952,36.331324 257.75609,35.678784 256.78283,33.338764 C 256.3929,32.401224 255.96048,31.370474 255.8219,31.048194 C 255.59031,30.509604 254.96258,29.019554 253.20518,24.836884 C 252.48359,23.119444 252.24529,22.820924 251.7691,23.037884 C 251.33453,23.235894 251.15934,23.607464 251.27622,24.083284 C 251.33199,24.310344 252.15384,26.341884 253.10253,28.597824 C 254.87735,32.818204 255.41468,34.101954 256.0234,35.576054 C 256.21697,36.044824 257.65354,39.488674 259.21578,43.229054 C 260.94869,47.378064 262.13755,50.368984 262.26481,50.899784 C 262.66701,52.577374 262.49299,54.133154 261.80155,55.041354 C 261.24982,55.766064 261.23802,55.804054 261.62703,55.602884 C 261.81817,55.504054 262.20198,55.195744 262.47996,54.917764 z M 313.08968,55.474244 C 313.23043,55.104054 313.11463,54.227824 312.86059,53.740774 C 312.64202,53.321714 312.27766,52.875024 309.02823,49.042424 C 307.76637,47.554104 305.1556,44.466644 303.22651,42.181414 C 298.80981,36.949304 297.40733,35.288294 296.83963,34.617214 C 296.59178,34.324234 294.50872,31.855224 292.21059,29.130514 C 284.83165,20.381884 284.53626,20.062434 282.74261,18.891524 C 282.07549,18.456034 280.96306,17.951004 280.08028,17.682864 C 279.60099,17.537284 279.86035,17.838944 280.93258,18.674104 C 282.46528,19.867924 283.20193,20.660954 286.93445,25.135344 C 288.74303,27.303384 291.24691,30.299764 292.49863,31.793964 C 293.75035,33.288154 296.17721,36.188654 297.89165,38.239504 C 299.60609,40.290364 302.41395,43.646304 304.13133,45.697164 C 305.84871,47.748014 308.2988,50.678564 309.57595,52.209494 C 312.27654,55.446694 312.56541,55.764994 312.80264,55.764994 C 312.89971,55.764994 313.02888,55.634154 313.08968,55.474244 z M 255.6793,39.871234 C 256.4774,39.509374 256.38447,39.074194 254.63061,34.959884 C 253.95078,33.365114 252.85326,30.789844 252.19167,29.237054 C 251.06371,26.589684 250.6472,25.827834 250.32779,25.827834 C 250.08454,25.827834 249.53372,26.534454 249.28103,27.170624 C 249.14381,27.516114 248.00414,30.208034 246.74843,33.152674 C 244.31161,38.867064 244.19297,39.235034 244.64254,39.684604 C 244.76296,39.805024 245.09701,39.944354 245.38486,39.994214 C 245.67272,40.044084 248.01769,40.077184 250.59591,40.067764 C 254.73906,40.052644 255.32955,40.029814 255.6793,39.871234 z M 314.08838,22.325094 C 314.1233,22.215064 314.1566,21.598574 314.16238,20.955134 C 314.17522,19.526274 313.98416,18.856444 313.37545,18.196074 C 312.88169,17.660394 312.08858,17.323554 311.10479,17.231684 C 310.27557,17.154254 310.14674,17.313104 310.78729,17.623184 C 311.83611,18.130914 312.81516,19.583464 313.46301,21.592954 C 313.75481,22.498054 313.95799,22.735924 314.08838,22.325094 z M 2.3303796,58.676374 C 1.5170968,58.275564 1.4465857,57.138504 2.1978486,56.539174 C 2.2884314,56.466914 2.903429,56.137264 3.5645096,55.806614 C 4.9752954,55.101004 5.661472,54.524624 6.1241449,53.656564 C 6.8770452,52.243974 6.8371372,53.166534 6.8371372,37.174124 C 6.8371372,25.777584 6.8082004,22.636674 6.69776,22.045744 C 6.2538165,19.670344 4.8926837,18.457924 2.035929,17.893234 C 0.50812196,17.591234 0.17246678,17.417184 0.029204175,16.852654 C -0.092662423,16.372434 0.17302824,15.875674 0.71120668,15.577524 C 1.0375558,15.396734 1.2303393,15.377904 2.2560065,15.426704 C 2.900561,15.457364 3.9073443,15.543134 4.4933029,15.617304 C 6.1121434,15.822214 11.345154,15.766594 15.238849,15.503094 C 21.691163,15.066434 26.1018,15.286024 30.062404,16.241084 C 38.779072,18.343034 43.824776,23.580784 44.942415,31.687424 C 45.117829,32.959764 45.11774,36.644574 44.942266,37.919894 C 44.70918,39.613914 44.391318,40.971714 43.84917,42.589244 C 41.799197,48.705424 37.426551,53.521454 31.500666,56.189864 C 27.197898,58.127384 23.096349,58.696654 16.532088,58.267394 C 12.090897,57.976964 6.9632259,58.150034 3.8864704,58.694194 C 2.7875051,58.888564 2.7602995,58.888254 2.3303796,58.676374 z M 6.6341782,55.565304 C 8.2096428,54.531624 8.8602955,53.342234 9.1256367,51.010964 C 9.2101223,50.268674 9.2353846,45.847164 9.2113902,36.002214 C 9.1798027,23.041784 9.1639659,22.000124 8.9894876,21.406514 C 8.5984572,20.076154 8.008496,19.169274 7.1496821,18.578394 C 6.5871672,18.191374 5.325689,17.697344 5.2427301,17.831574 C 5.2103393,17.883984 5.4823903,18.135114 5.847288,18.389654 C 6.9517805,19.160114 7.6176745,20.268444 7.8518565,21.726124 C 7.9140342,22.113154 7.954737,27.976754 7.9550225,36.588164 C 7.9555265,51.800334 7.9611538,51.623134 7.4292696,53.146304 C 7.1760876,53.871344 6.813636,54.522264 6.2326655,55.295254 C 5.6064772,56.128414 5.6901552,56.184684 6.6341782,55.565304 z M 24.25752,55.406184 C 30.383445,54.283814 34.764437,50.213314 36.541743,43.992554 C 38.014849,38.836524 37.613122,32.615864 35.499128,27.847914 C 33.282934,22.849464 29.112567,19.401474 23.924373,18.278104 C 20.983858,17.641404 17.494498,17.745374 15.975844,18.514934 C 14.894273,19.063004 14.422631,19.973144 14.243993,21.856934 C 14.099906,23.376374 14.099545,47.416984 14.24358,49.414684 C 14.407275,51.685084 14.773525,52.916194 15.581942,53.913444 C 16.240356,54.725654 17.454148,55.314074 18.940547,55.541624 C 19.902872,55.688944 23.16819,55.605764 24.25752,55.406184 z M 32.224608,53.403724 C 37.538623,49.842374 40.130238,44.469334 40.130238,37.013454 C 40.130238,33.509314 39.57535,30.635554 38.332452,27.702714 C 36.252785,22.795384 32.347684,19.055024 27.71857,17.536584 C 26.326712,17.080024 26.149118,17.047264 26.191785,17.254934 C 26.212926,17.357834 26.620703,17.588714 27.210423,17.831694 C 29.897806,18.938964 32.554771,21.107834 34.401819,23.701994 C 35.24239,24.882564 36.45515,27.246484 36.995507,28.757634 C 37.46129,30.060224 37.928227,31.969804 38.180824,33.605104 C 38.473466,35.499654 38.443747,39.681404 38.124415,41.542184 C 37.230447,46.751414 35.00772,50.746184 31.443077,53.550134 C 31.170733,53.764354 31.100011,53.953854 31.292401,53.953854 C 31.353644,53.953854 31.773137,53.706294 32.224608,53.403724 z M 325.16699,58.689304 C 324.33792,58.280144 324.25356,57.140854 325.00776,56.539174 C 325.09834,56.466914 325.71334,56.137264 326.37442,55.806614 C 327.7852,55.101004 328.47138,54.524624 328.93405,53.656564 C 329.68696,52.243974 329.64705,53.166534 329.64705,37.174124 C 329.64705,21.757324 329.65253,21.925214 329.10986,20.731504 C 328.73584,19.908774 328.29451,19.402374 327.47907,18.860274 C 326.62202,18.290504 326.189,18.135704 324.63977,17.845264 C 323.32464,17.598704 322.98027,17.408864 322.83912,16.852654 C 322.76241,16.550404 322.7846,16.402284 322.94928,16.117094 C 323.38537,15.361914 324.10676,15.252044 326.66399,15.551354 C 329.28039,15.857594 333.39446,15.835724 338.12642,15.490404 C 343.49566,15.098584 347.46751,15.217464 351.09676,15.878614 C 358.36267,17.202254 363.37753,20.507174 365.9599,25.673814 C 367.32982,28.414664 367.88529,31.040684 367.88544,34.777024 C 367.88556,37.938154 367.54019,40.084584 366.59214,42.814704 C 364.4668,48.935124 359.99229,53.732944 353.99062,56.326744 C 349.72326,58.171004 345.79585,58.691624 339.342,58.268584 C 334.83695,57.973284 330.16272,58.129094 326.67102,58.690964 C 325.45414,58.886784 325.56737,58.886904 325.16699,58.689304 z M 329.73047,55.380624 C 330.28391,54.983014 330.80538,54.436264 331.11556,53.928394 C 331.44078,53.395874 331.80815,52.131364 331.92837,51.130594 C 332.11318,49.592154 332.07979,23.028884 331.89174,21.992474 C 331.50653,19.869324 330.57466,18.663404 328.80433,17.997054 C 327.98377,17.688194 327.99506,17.690054 327.99782,17.864124 C 327.99899,17.937374 328.2442,18.141124 328.54274,18.316914 C 329.58306,18.929474 330.31133,20.029354 330.61226,21.442414 C 330.84568,22.538494 330.83727,50.463394 330.60315,51.697594 C 330.31259,53.229304 329.91194,54.155404 329.04671,55.295414 C 328.82024,55.593804 328.63494,55.868284 328.63494,55.905374 C 328.63494,56.030534 329.20774,55.756164 329.73047,55.380624 z M 346.3971,55.499744 C 351.57361,54.763834 355.59692,51.988934 357.92635,47.547934 C 360.7819,42.103884 361.0214,34.369784 358.52143,28.330504 C 356.05637,22.375534 351.08529,18.636474 344.72216,17.951214 C 343.44063,17.813194 340.87276,17.890234 340.00691,18.092664 C 338.01359,18.558704 337.29483,19.457324 337.05631,21.781644 C 336.90576,23.248734 336.90618,47.518044 337.05679,49.508124 C 337.22498,51.730474 337.58486,52.917944 338.39185,53.913444 C 339.05082,54.726344 340.29624,55.321874 341.79237,55.539494 C 342.81605,55.688394 345.2158,55.667674 346.3971,55.499744 z M 354.65895,53.670604 C 356.35799,52.602764 358.47964,50.605484 359.60781,49.011834 C 360.39584,47.898664 361.41515,45.865114 361.86554,44.507574 C 363.07504,40.862014 363.29373,35.729674 362.41211,31.680484 C 361.53442,27.649294 359.79168,24.391164 357.02729,21.613404 C 355.01538,19.591744 352.54762,18.100554 349.98498,17.357924 C 348.89835,17.043034 348.95929,17.049164 349.00251,17.259124 C 349.02261,17.356804 349.44647,17.595254 350.02034,17.831694 C 351.8351,18.579434 353.42293,19.630324 354.93658,21.085464 C 358.15841,24.182774 360.22089,28.444934 360.99187,33.598884 C 361.25455,35.354874 361.25241,39.581474 360.98798,41.265594 C 360.20985,46.221594 358.04573,50.377184 354.85854,53.035534 C 354.04191,53.716674 353.84589,53.953854 354.09962,53.953854 C 354.15938,53.953854 354.41107,53.826394 354.65895,53.670604 z M 457.24367,58.674614 C 456.77399,58.443184 456.56057,58.095934 456.56776,57.574854 C 456.57731,56.882924 456.87271,56.598094 458.37406,55.833134 C 459.11974,55.453204 459.92162,54.976244 460.156,54.773224 C 460.73878,54.268444 461.22413,53.421644 461.51217,52.407094 L 461.75358,51.556744 L 461.75263,37.174124 C 461.75176,23.923604 461.73713,22.724574 461.56684,21.941104 C 461.04348,19.533374 459.58324,18.317184 456.64025,17.837894 C 456.23008,17.771094 455.72021,17.643004 455.50721,17.553234 C 454.59496,17.168784 454.70918,15.946284 455.69588,15.534014 C 456.15908,15.340474 456.99209,15.348644 458.78748,15.564324 C 460.94992,15.824094 465.71732,15.799554 470.16791,15.505734 C 477.55483,15.018084 481.88569,15.317934 486.4176,16.630794 C 493.11978,18.572374 497.63272,22.860994 499.24397,28.819624 C 500.49035,33.428984 500.18107,38.973574 498.42406,43.518354 C 495.65186,50.689054 489.73927,55.792704 482.02689,57.672114 C 478.95963,58.419574 476.07065,58.581284 471.38942,58.267554 C 466.97019,57.971374 462.26899,58.129214 458.77804,58.690964 C 457.55592,58.887624 457.67862,58.888934 457.24367,58.674614 z M 461.53221,55.549574 C 463.18444,54.506094 463.80307,53.276534 464.05035,50.544634 C 464.12238,49.748794 464.14969,44.578024 464.1283,35.789134 C 464.09539,22.270534 464.09517,22.258114 463.86389,21.443364 C 463.4096,19.842904 462.68061,18.865814 461.49389,18.266764 C 460.8589,17.946214 460.10124,17.749184 460.10484,17.905544 C 460.10601,17.956014 460.35038,18.141124 460.6479,18.316914 C 461.60171,18.880484 462.20114,19.722254 462.62361,21.091454 C 462.80973,21.694644 462.81945,22.463404 462.81945,36.588164 C 462.81945,50.675034 462.80923,51.489104 462.62353,52.195974 C 462.36388,53.184314 461.6064,54.733754 461.06836,55.377074 C 460.83025,55.661784 460.63542,55.913484 460.63542,55.936404 C 460.63542,56.058144 460.9241,55.933624 461.53221,55.549574 z M 479.43937,55.343254 C 482.39313,54.751104 484.72475,53.594134 486.79322,51.694214 C 488.02011,50.567294 488.74474,49.675054 489.62432,48.208264 C 490.87388,46.124494 491.77336,43.380844 492.11705,40.604764 C 492.44243,37.976564 492.28737,34.484354 491.73135,31.918024 C 490.87047,27.944584 488.85692,24.374384 486.0942,21.922894 C 482.80805,19.006914 478.06355,17.511774 473.41997,17.928844 C 471.64931,18.087884 470.85831,18.360234 470.17729,19.045344 C 469.55096,19.675434 469.3153,20.264654 469.14769,21.619594 C 469.0811,22.157814 469.05695,27.595384 469.08212,36.375094 C 469.12531,51.432884 469.11056,51.045914 469.7018,52.626154 C 470.29793,54.219454 471.72345,55.211264 473.89939,55.546624 C 475.03038,55.720944 478.12139,55.607464 479.43937,55.343254 z M 487.20597,53.341254 C 489.69297,51.662414 491.65413,49.464404 492.91848,46.938814 C 493.83456,45.108924 494.42688,43.193804 494.78527,40.902954 C 495.02134,39.393994 495.10514,36.176304 494.94896,34.617214 C 494.20216,27.161884 490.45832,21.269814 484.63043,18.377874 C 483.68759,17.910014 482.13807,17.326634 481.37506,17.152264 C 481.13451,17.097294 481.0806,17.117594 481.10872,17.252564 C 481.12912,17.350504 481.55505,17.597724 482.11981,17.839444 C 484.10421,18.688774 485.62251,19.711834 487.17639,21.246704 C 490.43879,24.469174 492.49949,28.938744 493.14831,34.199494 C 493.34758,35.815264 493.31664,39.585424 493.09198,41.062764 C 492.35578,45.903804 490.5529,49.617804 487.54482,52.490114 C 487.12993,52.886274 486.635,53.317754 486.44496,53.448954 C 486.11733,53.675154 485.98115,53.953854 486.19824,53.953854 C 486.25337,53.953854 486.70685,53.678184 487.20597,53.341254 z M 200.69589,58.609374 C 200.19218,58.416334 199.83059,57.962724 199.83059,57.523864 C 199.83059,56.635884 200.09827,56.434074 201.90365,55.960994 C 203.46997,55.550564 204.28812,55.152214 205.04234,54.432804 C 205.76915,53.739544 206.24067,52.912434 206.57173,51.750004 L 206.80882,50.917524 L 206.78408,35.842404 C 206.77047,27.551094 206.73161,20.563764 206.69773,20.315004 C 206.61023,19.672684 206.22368,19.261964 205.49451,19.036544 C 204.98924,18.880344 204.49273,18.851544 202.44077,18.859384 C 195.56769,18.885664 193.89831,19.942274 192.58152,25.099684 C 192.17742,26.682364 191.8206,27.119404 190.92139,27.132994 C 190.50343,27.139314 190.37923,27.092634 190.17151,26.851144 C 189.8421,26.468174 189.84948,26.124884 190.24112,23.614874 C 190.41632,22.491984 190.63201,20.744704 190.72042,19.732014 C 191.03078,16.176844 191.16194,15.584254 191.68222,15.386444 C 192.09222,15.230564 193.542,15.256874 196.11226,15.466854 C 198.09976,15.629214 199.89604,15.653144 210.1115,15.653294 C 220.44548,15.653444 222.15808,15.630174 224.60066,15.456384 C 226.12415,15.347994 227.88228,15.276084 228.50762,15.296584 C 229.52717,15.330004 229.67212,15.359754 229.91127,15.584654 C 230.06461,15.728844 230.22385,16.045834 230.28592,16.330414 C 230.34529,16.602644 230.52268,18.551294 230.68013,20.660754 C 231.02023,25.217434 231.03786,25.082074 230.10436,25.082074 C 229.24247,25.082074 229.00147,24.875484 228.70678,23.884084 C 227.63799,20.288384 226.5573,19.400084 222.7691,19.003434 C 221.31148,18.850814 216.36113,18.924264 215.78174,19.107114 C 215.23658,19.279154 214.67275,19.795754 214.51252,20.269994 C 214.34238,20.773584 214.27534,37.371294 214.4096,45.750434 C 214.49758,51.241124 214.51496,51.594804 214.72924,52.256924 C 215.05859,53.274644 215.68592,54.181614 216.44904,54.743394 C 217.25782,55.338784 218.00826,55.624884 219.43357,55.881234 C 220.84314,56.134744 221.2914,56.329244 221.50538,56.780194 C 221.70103,57.192484 221.71413,57.526784 221.55278,57.989634 C 221.29854,58.718934 220.70399,58.774104 217.03092,58.409254 C 213.71931,58.080304 209.13209,58.078454 205.84744,58.404744 C 202.63732,58.723634 201.14835,58.782774 200.69589,58.609374 z M 207.16042,55.226124 C 208.4355,54.588964 209.01826,53.443694 209.30539,51.010744 C 209.44834,49.799404 209.45875,22.693184 209.31679,21.331844 C 209.18478,20.066014 208.922,19.293034 208.43602,18.740924 C 207.95793,18.197794 207.12374,17.746314 206.93922,17.930834 C 206.85017,18.019884 206.91798,18.154044 207.20177,18.450244 C 207.4122,18.669894 207.67356,19.017404 207.78256,19.222484 C 207.9736,19.581934 207.97972,20.169134 207.95231,35.522794 C 207.92773,49.293264 207.90175,51.570644 207.76049,52.339534 C 207.52441,53.624484 207.23017,54.325684 206.69088,54.888524 C 205.9576,55.653804 206.09986,55.756094 207.16042,55.226124 z M 192.52016,21.536794 C 193.2711,19.946084 194.72589,18.783864 196.89776,18.039574 C 197.36499,17.879454 197.76301,17.701234 197.78225,17.643514 C 197.84886,17.443674 195.90284,17.379404 195.07484,17.554094 C 193.40786,17.905794 192.53139,18.685944 192.12322,20.181324 C 191.91703,20.936774 191.82822,22.419714 191.98942,22.415734 C 192.05387,22.414144 192.29269,22.018624 192.52016,21.536794 z M 229.0204,21.220074 C 229.01811,20.716934 228.7367,19.600924 228.49037,19.118064 C 228.19197,18.533154 227.79935,18.171944 227.11113,17.849164 C 226.53987,17.581244 226.44758,17.571154 224.5701,17.571154 C 222.98171,17.571154 222.60421,17.599724 222.52628,17.725874 C 222.38014,17.962404 222.46416,18.009864 223.07686,18.036924 C 224.54502,18.101764 226.19829,18.727784 227.17294,19.587934 C 227.47437,19.853954 227.97031,20.407914 228.27503,20.818964 C 228.57975,21.230014 228.87248,21.566324 228.92553,21.566324 C 228.97858,21.566324 229.02127,21.410514 229.0204,21.220074 z M 381.53102,58.692094 C 381.47242,58.670574 380.48961,58.546164 379.34699,58.415644 C 376.39571,58.078514 372.81957,58.074524 370.90155,58.406214 C 368.65277,58.795104 368.06866,58.697964 367.82812,57.895134 C 367.72854,57.562744 367.72925,57.374074 367.83139,57.033164 C 367.95481,56.621204 368.01401,56.573184 368.887,56.176814 C 370.29614,55.536994 370.28922,55.541264 371.01747,54.862744 C 371.83369,54.102264 372.31912,53.409154 373.03437,51.982894 C 373.32824,51.396944 377.1995,42.743394 381.6372,32.752804 C 386.0749,22.762214 389.77955,14.504194 389.86977,14.401644 C 389.9746,14.282494 390.18762,14.215204 390.45994,14.215204 C 390.81499,14.215204 390.94997,14.282674 391.26909,14.619614 C 391.47976,14.842044 391.71932,15.213594 391.80146,15.445284 C 391.8836,15.676974 392.29743,16.681554 392.72107,17.677684 C 393.14471,18.673814 394.17326,21.094894 395.00674,23.057854 C 396.69441,27.032554 401.91912,39.297204 402.31372,40.210454 C 402.45296,40.532734 403.64381,43.320494 404.96005,46.405464 C 407.79099,53.040624 408.0534,53.583224 408.81983,54.386754 C 409.50289,55.102864 410.22656,55.505484 411.68125,55.978754 C 412.26721,56.169394 412.82576,56.394174 412.92249,56.478274 C 413.04465,56.584474 413.12042,56.595484 413.17057,56.514324 C 413.2103,56.450054 413.82277,56.106744 414.53162,55.751404 C 416.61931,54.704874 417.44744,53.684544 417.85731,51.653814 C 418.00916,50.901444 418.02381,49.255884 417.99374,36.321824 C 417.95652,20.314934 418.00768,21.466534 417.2725,20.087184 C 416.58438,18.796134 415.64568,18.206434 413.60509,17.783284 C 411.87623,17.424774 411.73452,17.319914 411.73452,16.399234 C 411.73452,15.786814 411.85957,15.544654 412.29105,15.321524 C 412.66981,15.125654 413.16016,15.139784 416.42219,15.440574 C 418.82739,15.662344 422.93264,15.664154 425.90406,15.444734 C 429.66985,15.166654 433.57214,15.115974 435.33267,15.322274 C 440.51733,15.929824 443.87933,17.928984 445.56456,21.406514 C 446.41199,23.155234 446.75726,25.025164 446.64481,27.257004 C 446.42992,31.521964 444.28269,34.278624 439.78464,36.064244 C 439.32832,36.245394 438.93557,36.412834 438.91185,36.436334 C 438.88815,36.459824 439.09317,36.676584 439.36746,36.918024 C 440.21087,37.660424 439.77604,36.898844 445.96149,48.467144 C 446.36878,49.228894 446.89576,50.211704 447.13255,50.651174 C 448.2251,52.678884 449.08786,53.750354 450.0349,54.255614 C 450.54857,54.529664 450.62159,54.538904 452.08056,54.514374 C 453.53521,54.489924 453.59988,54.498024 453.75853,54.724524 C 454.86624,56.306014 450.70287,58.599674 447.07894,58.404394 C 444.27845,58.253494 442.10397,56.491044 439.59083,52.335154 C 439.26106,51.789834 437.82544,48.994514 436.40056,46.123314 C 433.77838,40.839524 433.05458,39.551204 432.39473,38.993274 C 431.50226,38.238644 429.9169,37.893734 427.86096,38.006914 C 426.20635,38.097994 425.71559,38.402824 425.48384,39.483434 C 425.34828,40.115514 425.34681,48.972604 425.48201,50.496634 C 425.65022,52.392844 426.13721,53.659844 427.04219,54.555804 C 427.68142,55.188664 428.39568,55.551944 429.52635,55.819294 C 430.64875,56.084684 431.03852,56.287654 431.26338,56.723834 C 431.50648,57.195444 431.43291,57.940264 431.10915,58.284884 C 430.7511,58.666024 430.15566,58.689954 427.90287,58.413744 C 424.93526,58.049894 420.35334,58.052914 416.61677,58.421164 C 414.15977,58.663314 413.9597,58.669084 413.55334,58.509464 C 413.16092,58.355314 413.08673,58.354584 412.7912,58.502014 C 412.42059,58.686904 412.01082,58.668104 408.53838,58.306874 C 404.98557,57.937294 401.26261,58.013934 396.57712,58.553124 L 395.42946,58.685194 L 395.15382,58.409554 C 394.80012,58.055844 394.68827,57.275464 394.9369,56.896014 C 395.04003,56.738604 395.66422,56.365004 396.53637,55.938664 C 398.74019,54.861364 399.24922,54.129174 399.13059,52.207124 C 399.0597,51.058624 398.92215,50.617474 397.78177,47.881184 C 396.59093,45.023824 396.23806,44.339574 395.69922,43.842884 C 394.92844,43.132404 395.01289,43.140254 388.13637,43.140254 C 381.13608,43.140254 381.1212,43.141644 380.33076,43.870244 C 379.74906,44.406434 379.47052,44.948884 378.79539,46.860274 C 378.50392,47.685464 377.9986,49.103714 377.67245,50.011944 C 377.14616,51.477484 377.07868,51.759184 377.07274,52.515584 C 377.06459,53.553354 377.27151,54.016064 378.06129,54.726134 C 378.72851,55.326034 379.62452,55.693154 381.40144,56.094704 C 383.33108,56.530754 383.60851,56.708524 383.60851,57.508934 C 383.60851,58.097084 383.4334,58.423454 383.02665,58.593404 C 382.69304,58.732794 381.80188,58.791604 381.53102,58.692094 z M 446.88765,57.549504 C 446.88524,57.476264 446.57489,57.188424 446.19797,56.909874 C 444.9423,55.981924 443.3967,53.929804 441.80506,51.077324 C 441.39637,50.344874 440.18736,47.995714 439.1184,45.856964 C 435.95569,39.529184 435.22009,38.165764 434.82581,37.900894 C 434.38839,37.607024 433.81647,37.500904 433.44051,37.643844 C 433.03313,37.798724 433.07409,38.013774 433.63189,38.648464 C 433.98402,39.049134 434.66799,40.296894 436.15246,43.246784 C 440.58039,52.045744 440.80463,52.462444 441.87798,53.886354 C 443.30909,55.784864 444.50082,56.803624 446.02295,57.429704 C 446.71134,57.712854 446.89385,57.738134 446.88765,57.549504 z M 371.59111,56.710494 C 372.85513,56.442084 373.91707,55.635934 374.48625,54.512714 C 374.81228,53.869334 375.05773,52.629984 375.11915,51.317034 C 375.15932,50.458404 375.14292,50.331564 374.99165,50.331564 C 374.87691,50.331564 374.73155,50.557374 374.56302,50.997424 C 374.21879,51.896234 373.32174,53.684134 372.91933,54.273464 C 372.46959,54.932094 371.62654,55.811674 371.01408,56.261254 C 370.27079,56.806894 370.45644,56.951434 371.59111,56.710494 z M 399.63337,55.451634 C 400.22268,55.046184 400.68906,54.509574 401.05429,53.816744 C 401.33603,53.282294 401.34705,53.201104 401.34655,51.663284 C 401.34582,49.408144 401.4819,49.820324 398.04022,41.648724 C 397.47259,40.301014 396.89924,38.934664 396.76611,38.612394 C 396.63297,38.290114 396.02064,36.827874 395.40537,35.362984 C 394.7901,33.898084 393.7732,31.477014 393.14561,29.982814 C 392.51801,28.488624 391.69707,26.532224 391.32131,25.635274 C 390.42613,23.498504 390.25656,23.179284 389.9401,23.035084 C 389.71938,22.934524 389.62649,22.950404 389.38511,23.129974 C 388.97459,23.435374 388.93559,24.132564 389.28974,24.834984 C 389.43211,25.117374 389.69474,25.707984 389.87336,26.147454 C 390.05197,26.586924 390.38848,27.401934 390.62116,27.958594 C 399.68793,49.650324 399.81374,49.956194 400.06319,50.913874 C 400.28385,51.761054 400.28023,53.449354 400.05627,54.142814 C 399.96159,54.435984 399.69864,54.920914 399.47195,55.220424 C 399.24525,55.519944 399.08636,55.764994 399.11885,55.764994 C 399.15133,55.764994 399.38287,55.623984 399.63337,55.451634 z M 418.0027,55.437334 C 419.32245,54.777854 419.99407,53.485574 420.37943,50.864254 C 420.54492,49.738534 420.63699,24.897674 420.48244,23.070234 C 420.35809,21.599874 420.16905,20.742464 419.78266,19.896324 C 419.33253,18.910634 418.26123,17.956884 417.17285,17.572884 L 416.70744,17.408674 L 417.36517,18.060314 C 418.0889,18.777334 418.62538,19.752134 418.94379,20.928714 C 419.11666,21.567444 419.13351,22.668964 419.16721,35.522794 C 419.20515,49.997824 419.17999,51.049154 418.75928,52.567354 C 418.50052,53.501134 417.94105,54.611394 417.42622,55.212874 C 417.22558,55.447274 417.06141,55.667394 417.06141,55.702024 C 417.06141,55.838814 417.37668,55.750164 418.0027,55.437334 z M 393.51653,39.832364 C 393.81667,39.656664 393.89571,39.539764 393.92169,39.233134 C 393.96685,38.699934 393.74853,38.109754 391.9186,33.818184 C 391.03163,31.738034 389.94539,29.185274 389.50474,28.145394 C 388.60289,26.017094 388.38024,25.723794 387.86774,25.988824 C 387.50678,26.175484 387.38972,26.415224 385.57942,30.675314 C 384.83243,32.433194 383.78765,34.878234 383.2577,36.108744 C 381.89023,39.283894 381.88296,39.798154 383.20277,39.998414 C 383.51381,40.045614 385.87776,40.076674 388.45598,40.067444 C 392.97252,40.051264 393.15726,40.042684 393.51653,39.832364 z M 433.30845,35.197814 C 436.66359,34.669854 438.49871,33.079524 439.06962,30.205134 C 439.33916,28.848034 439.23695,26.148174 438.86182,24.716614 C 437.73497,20.416284 434.65735,17.960614 430.01873,17.660594 C 428.89119,17.587674 427.66538,17.749884 427.07746,18.049814 C 426.54796,18.319944 426.08738,18.887764 425.83921,19.576364 C 425.65443,20.089094 425.63809,20.605804 425.6079,26.892644 C 425.57893,32.922844 425.59414,33.706294 425.74802,34.109234 C 426.03539,34.861684 426.64615,35.158334 428.22361,35.311604 C 429.36527,35.422534 432.29732,35.356924 433.30845,35.197814 z M 439.25929,33.292964 C 440.69853,31.896744 441.44191,30.210394 441.66232,27.841714 C 441.83946,25.937964 441.52742,24.070904 440.76477,22.471384 C 439.74876,20.340494 438.05391,18.811884 435.75264,17.950874 C 434.86508,17.618794 434.76501,17.683624 435.39866,18.180204 C 437.21437,19.603174 438.23773,20.800264 439.06378,22.467514 C 439.97359,24.303794 440.11037,24.946344 440.11935,27.425904 C 440.12538,29.092384 440.08775,29.672014 439.92915,30.355704 C 439.70213,31.334274 439.17016,32.554094 438.65786,33.270804 C 438.13395,34.003754 438.12177,34.031254 438.3208,34.031254 C 438.41839,34.031254 438.84071,33.699024 439.25929,33.292964 z M 49.763516,58.497874 C 49.134675,58.209634 48.998797,57.103934 49.523476,56.544554 C 49.66012,56.398874 50.295189,56.011914 50.93474,55.684644 C 53.292083,54.478334 54.12223,53.185524 54.398117,50.291034 C 54.548227,48.716154 54.368247,22.092804 54.203294,21.472004 C 53.855643,20.163614 52.98963,19.050244 51.89259,18.501294 C 51.220906,18.165184 50.749474,18.036384 49.256291,17.781044 C 47.776459,17.527974 47.481354,17.301794 47.481354,16.420604 C 47.481354,15.380744 48.117352,15.093664 50.029238,15.270524 C 54.721688,15.704594 63.698298,15.780144 71.357149,15.450004 C 73.795093,15.344924 76.442855,15.275794 77.241067,15.296394 C 78.648629,15.332724 78.700925,15.342424 78.976588,15.618194 C 79.162674,15.804364 79.290029,16.080264 79.345422,16.417234 C 79.391956,16.700314 79.432887,18.692684 79.43638,20.844734 L 79.442731,24.757544 L 79.174299,24.933434 C 78.98068,25.060294 78.766581,25.093614 78.406103,25.052984 C 77.805397,24.985274 77.559909,24.729994 77.481982,24.092004 C 77.272759,22.379114 77.192845,22.014024 76.894459,21.407914 C 76.494179,20.594834 75.565103,19.685174 74.677117,19.236924 C 73.199232,18.490884 71.331652,18.166044 68.038439,18.082214 C 64.776322,17.999174 63.604471,18.202964 62.68374,19.013424 C 61.785581,19.804014 61.814847,19.575674 61.779721,26.066644 C 61.757899,30.099104 61.784554,31.925174 61.869863,32.241984 C 62.030734,32.839414 62.640515,33.441124 63.252829,33.606644 C 63.988042,33.805384 68.234337,33.688534 69.002014,33.448434 C 70.690096,32.920474 71.535753,32.131624 72.520219,30.166594 C 72.879098,29.450264 73.303403,28.730874 73.46312,28.567954 C 73.769481,28.255464 74.347327,28.099714 74.789061,28.210584 C 75.286175,28.335354 75.336186,28.705564 75.182444,31.122604 C 75.029293,33.530364 75.089499,36.635554 75.345217,39.517964 C 75.567079,42.018744 75.553673,42.686524 75.276566,42.937294 C 74.971167,43.213684 74.115696,43.216294 73.812353,42.941774 C 73.597599,42.747424 73.544211,42.555604 73.215243,40.796414 C 73.000408,39.647564 72.348287,38.336504 71.713951,37.778134 C 70.55528,36.758234 69.596144,36.549944 66.018953,36.541394 C 63.507386,36.535394 63.270161,36.550994 62.87749,36.747974 C 62.643879,36.865164 62.347839,37.118614 62.219621,37.311194 C 61.759047,38.002964 61.734447,38.418474 61.752808,45.196034 C 61.773129,52.697284 61.815451,53.165794 62.550293,54.024294 C 63.221448,54.808394 64.373213,55.123544 66.57282,55.124964 C 70.686724,55.127614 74.832669,53.793714 77.435024,51.630174 C 78.437761,50.796524 78.923482,50.221864 79.911146,48.700644 C 80.722372,47.451174 80.936275,47.239254 81.380044,47.245344 C 82.41544,47.259564 82.486435,49.051224 81.556516,51.698894 C 80.329666,55.191994 78.604045,57.181264 76.046028,58.051304 C 74.180804,58.685704 71.854382,58.776804 67.19087,58.398064 C 63.619209,58.107994 57.057329,58.089284 54.193243,58.361004 C 51.222451,58.642854 50.151978,58.675924 49.763516,58.497874 z M 74.541986,56.136294 C 76.291549,55.750484 77.95123,54.665114 78.890434,53.292574 C 79.547257,52.332704 80.192472,50.757714 79.928873,50.757714 C 79.903272,50.757714 79.410856,51.225574 78.834613,51.797394 C 76.881123,53.735914 74.594556,54.922144 71.505656,55.599524 C 69.864252,55.959464 69.906356,55.943844 70.064574,56.134484 C 70.31525,56.436524 73.17526,56.437684 74.541986,56.136294 z M 54.116978,55.374674 C 55.219944,54.820294 56.01893,53.588894 56.360761,51.916554 C 56.741782,50.052474 56.771819,48.665934 56.720673,35.302724 C 56.665551,20.900134 56.693036,21.474134 55.987385,19.988904 C 55.458373,18.875464 54.310138,17.906284 53.127864,17.575284 C 52.906629,17.513354 52.944736,17.579124 53.352874,17.963674 C 54.29159,18.848124 54.917379,20.095484 55.133563,21.513054 C 55.290753,22.543784 55.400576,45.291754 55.265492,48.840034 C 55.198331,50.604164 55.104003,51.793274 54.996475,52.231304 C 54.760097,53.194234 54.204175,54.335434 53.626134,55.044354 C 53.352086,55.380454 53.127864,55.683324 53.127864,55.717404 C 53.127864,55.808124 53.535924,55.666734 54.116978,55.374674 z M 72.538937,36.048344 C 72.46167,33.982334 72.376584,33.072414 72.260661,33.072414 C 72.191899,33.072414 71.836488,33.363334 71.470857,33.718904 C 71.056998,34.121364 70.54399,34.488024 70.111727,34.690304 C 69.656018,34.903564 69.428389,35.069554 69.449409,35.173284 C 69.468166,35.265854 69.812502,35.436804 70.280469,35.585874 C 70.719938,35.725864 71.367156,36.028614 71.718731,36.258654 C 72.070307,36.488694 72.40355,36.665714 72.459271,36.652034 C 72.514994,36.638354 72.550843,36.366694 72.538937,36.048344 z M 77.90668,20.183784 C 77.780593,19.069324 77.556272,18.508144 77.012876,17.947744 C 76.450424,17.367694 75.902802,17.154734 74.658333,17.032114 C 73.588627,16.926704 71.665462,17.071194 71.665462,17.256964 C 71.665462,17.341154 71.832571,17.429974 72.06498,17.469324 C 73.015566,17.630254 74.23033,17.999504 75.021407,18.367994 C 76.011856,18.829354 76.707094,19.410594 77.253936,20.234444 C 77.789435,21.041204 78.001821,21.024724 77.90668,20.183784 z M 84.982703,58.502334 C 84.513164,58.342214 84.265526,57.882434 84.323184,57.277834 C 84.381145,56.670054 84.689104,56.398764 86.10624,55.707074 C 88.034529,54.765894 88.867501,53.764284 89.317848,51.845264 C 89.498717,51.074554 89.510564,50.149514 89.510564,36.801244 C 89.510564,21.748954 89.51424,21.869854 89.016282,20.538954 C 88.727628,19.767444 87.754994,18.723294 86.964361,18.336164 C 86.639943,18.177304 85.813839,17.928614 85.128575,17.783504 C 84.443312,17.638394 83.768451,17.444844 83.628883,17.353394 C 83.082472,16.995374 83.009067,16.105134 83.482265,15.575244 C 83.788726,15.232074 83.805837,15.227314 84.734086,15.227314 C 85.251698,15.227314 86.586098,15.314284 87.69942,15.420564 C 90.448625,15.683034 94.166969,15.674454 98.406486,15.395854 C 104.72049,14.980924 107.78076,15.163114 110.65132,16.124844 C 114.7869,17.510384 117.21039,20.180314 117.95905,24.175654 C 118.19155,25.416424 118.13241,28.409584 117.85484,29.450124 C 117.59129,30.438074 116.83284,31.954194 116.23116,32.695814 C 115.16059,34.015384 113.46587,35.182304 111.47155,35.973074 L 110.35623,36.415324 L 110.96831,37.007804 C 111.56828,37.588544 111.95525,38.180454 112.92277,39.997384 C 116.84255,47.358394 119.19352,51.696144 119.59189,52.302514 C 120.22859,53.271644 120.97661,54.015744 121.60676,54.306814 C 122.05828,54.515374 122.26426,54.537294 123.57109,54.515794 C 125.33514,54.486774 125.43176,54.536854 125.36443,55.445384 C 125.26422,56.797484 122.32011,58.250754 119.39446,58.392284 C 117.42466,58.487564 116.27009,58.109754 114.694,56.854144 C 112.70012,55.265684 111.39832,53.214334 107.94028,46.211704 C 105.26081,40.785694 104.90992,40.146214 104.16483,39.330954 C 103.20767,38.283684 101.745,37.882454 99.335475,38.006234 C 98.000055,38.074834 97.511344,38.260944 97.184262,38.825464 C 96.974307,39.187844 96.968224,39.364904 96.968224,45.111204 C 96.968224,50.454174 96.9869,51.103674 97.162017,51.850104 C 97.543358,53.475564 98.422818,54.749304 99.566727,55.332884 C 99.811338,55.457674 100.47308,55.679714 101.03728,55.826304 C 102.59463,56.230934 102.88108,56.471284 102.88108,57.373364 C 102.88108,58.017624 102.63684,58.397304 102.12348,58.551114 C 101.75528,58.661424 101.33314,58.641164 99.434012,58.422034 C 96.334846,58.064424 91.583851,58.058384 88.232109,58.407784 C 85.69365,58.672414 85.49812,58.678104 84.982703,58.502334 z M 118.40819,57.498614 C 118.42973,57.434004 118.34393,57.348324 118.21754,57.308204 C 117.91051,57.210764 116.52393,55.884394 115.88749,55.079344 C 115.23557,54.254724 114.24089,52.755664 113.62081,51.663284 C 113.14588,50.826624 111.64029,47.891784 108.4286,41.542184 C 106.71215,38.148734 106.43034,37.743504 105.69025,37.604664 C 105.19131,37.511064 104.71375,37.624434 104.66932,37.847034 C 104.64962,37.945704 104.86559,38.314084 105.14927,38.665654 C 105.51387,39.117544 106.43203,40.834874 108.28206,44.525244 C 111.19831,50.342464 112.03938,51.930864 112.82331,53.101544 C 114.39639,55.450724 115.79032,56.720294 117.58332,57.436884 C 118.19685,57.682084 118.34338,57.693054 118.40819,57.498614 z M 89.40555,55.493314 C 90.454144,54.997254 91.193656,53.951154 91.589284,52.404264 C 91.993202,50.824974 92.030735,49.230524 91.990442,35.362984 C 91.955423,23.309194 91.93468,21.975874 91.771848,21.309304 C 91.295069,19.357604 90.272944,18.159634 88.572647,17.559734 L 88.146695,17.409454 L 88.661148,17.862294 C 89.346155,18.465264 89.928001,19.389154 90.28411,20.439324 L 90.575949,21.299974 L 90.575949,36.375094 L 90.575949,51.450204 L 90.328419,52.350874 C 90.023971,53.458654 89.593025,54.348754 88.972036,55.152404 C 88.431836,55.851504 88.513178,55.915474 89.40555,55.493314 z M 105.03765,35.155564 C 108.81147,34.481124 110.52248,32.525494 110.72856,28.651094 C 110.84288,26.501544 110.45185,24.442124 109.59571,22.684974 C 108.18529,19.790164 105.78038,18.177604 102.20186,17.727174 C 99.352703,17.368554 97.854012,17.969964 97.313407,19.688874 C 97.076797,20.441214 97.074762,20.504804 97.074762,27.159564 C 97.074762,33.321484 97.089869,33.899054 97.259073,34.208294 C 97.640723,34.905764 98.219555,35.164444 99.73821,35.316214 C 100.8936,35.431674 104.02358,35.336784 105.03765,35.155564 z M 110.93316,33.122724 C 112.52724,31.491364 113.3429,28.980144 113.18149,26.200724 C 113.00455,23.153974 111.63228,20.585534 109.34509,19.020244 C 108.71383,18.588224 107.22166,17.886514 106.71645,17.784104 C 106.28671,17.696984 106.27041,17.677414 107.35567,18.551684 C 109.59722,20.357444 110.95074,22.528834 111.52598,25.241884 C 111.7506,26.301234 111.69093,29.094454 111.41788,30.302434 C 111.16872,31.404754 110.6475,32.605684 110.0684,33.411754 C 109.3226,34.449834 109.78855,34.294104 110.93316,33.122724 z "
     id="path2161" />
</svg>
