<?xml version="1.0" encoding="utf-8"?>
<!-- Generator: Adobe Illustrator 23.0.1, SVG Export Plug-In . SVG Version: 6.00 Build 0)  -->
<svg version="1.1" id="Ebene_1" xmlns="http://www.w3.org/2000/svg" xmlns:xlink="http://www.w3.org/1999/xlink" x="0px" y="0px"
	 viewBox="0 0 1280 1179.5" style="enable-background:new 0 0 1280 1179.5;" xml:space="preserve">
<style type="text/css">
	.st0{fill:#BCBCBC;}
</style>
<g transform="translate(0.000000,1280.000000) scale(0.100000,-0.100000)">
	<path class="st0" d="M8833,12465c-63-32-196-168-245-251c-55-94-101-211-193-488c-47-142-92-271-100-285c-31-60-90-93-185-105
		c-77-10-488-114-710-180c-102-30-403-126-670-215c-267-88-552-180-635-204c-82-25-174-55-203-66c-67-27-84-26-109,2
		c-30,34-34,52-17,104c13,42,164,599,253,934c38,143,40,191,7,224s-96,48-144,36c-71-20-109-76-189-280c-60-152-79-219-169-576
		c-104-413-139-496-226-545c-127-71-465,27-676,196c-157,126-284,305-361,509c-56,148-65,158-122,135c-145-60,133-562,445-804
		c97-75,196-133,290-171c75-29,245-75,281-75c38,0,115-31,130-53c24-34,18-119-25-359c-92-522-209-1254-229-1441
		c-35-314,3-669,91-859c97-212,331-263,520-113c175,137,379,451,531,815c36,85,86,199,112,253c70,146,70,193,2,199
		c-55,5-105-52-137-157c-6-22-45-107-85-190c-41-82-100-207-133-277s-85-166-116-213c-64-98-211-256-261-279c-74-36-167-5-211,69
		c-39,68-47,160-41,490c8,430,45,755,138,1219c65,326,171,746,207,816c47,94,52,95,603,251c272,77,787,223,1144,324
		c358,102,665,188,682,191c41,8,78-14,85-50c3-15-1-65-8-114c-98-637-116-820-137-1397c-3-80-18-115-180-397
		c-210-365-277-454-394-515c-106-56-103-57-103,37c0,146,142,1040,210,1327c45,188,41,218-32,248c-67,26-120,14-180-43
		c-58-56-74-98-129-335c-47-202-83-418-99-587c-6-69-17-195-26-280c-18-191-18-256,0-341c41-191,133-276,267-248
		c118,25,278,121,352,211c20,24,98,143,172,264c75,120,140,220,144,222c4,1,35-106,69-239c81-319,135-443,248-567
		c126-139,306-185,484-124c248,86,608,381,878,720c156,196,366,531,497,793c55,108,64,144,45,178c-25,48-35,36-283-337
		c-358-538-474-689-688-898c-138-134-290-249-406-306c-82-41-91-43-173-43c-76,0-91,3-123,25c-81,54-132,164-182,386
		c-41,181-64,371-77,614c-19,371-43,284,312,1110c166,388,310,714,318,725c55,72,123,80,337,36c332-67,524-157,710-332
		c45-42,92-80,104-84c43-13,94,46,78,89c-8,21-184,165-292,241c-179,124-354,209-580,280c-134,42-165,56-195,87c-30,32-26,94,20,291
		c49,214,80,402,80,488c0,137-49,227-151,278C8969,12499,8905,12501,8833,12465z M9011,12291c22-18,24-26,22-109
		c-2-122-28-302-64-452c-57-233-99-301-194-316c-103-15-165,12-165,72c0,18,47,163,104,321c179,497,182,503,241,503
		C8973,12310,8998,12301,9011,12291z M8742,11113c22-20,23-54,2-95c-9-16-38-96-65-176c-85-249-167-435-262-596c-23-38-43-64-45-58
		c-12,36,67,599,109,781c25,108,59,157,119,170C8644,11148,8718,11135,8742,11113z"/>
	<path class="st0" d="M3553,11250c-133-28-287-163-403-355c-104-173-178-339-320-716c-43-113-85-219-93-235c-31-59-89-95-217-135
		c-63-20-95-24-200-23c-152,2-243,24-380,91c-124,61-248,181-301,288c-40,83-63,94-78,38c-46-166,65-360,260-455
		c190-92,407-125,631-97c100,13,131,6,149-35c9-20-6-75-100-357c-61-184-121-352-134-374c-45-80-80-81-303-6c-207,69-293,86-444,85
		c-148-1-236-22-356-82c-258-130-478-409-589-747c-72-219-96-438-60-561c45-155,156-287,310-366c123-63,196-82,325-82
		c152,0,287,41,462,140c324,183,462,340,702,794c100,189,133,230,185,230c31,0,44-10,115-87c226-245,325-325,522-419
		c161-77,217-133,303-301c101-199,227-316,399-370c73-22,95-25,180-21c80,4,111,11,176,38c240,100,417,301,520,589
		c27,75,28,101,3,101c-17,0-65-52-102-110c-63-101-182-244-275-333c-199-191-344-220-485-96c-74,66-185,263-185,332
		c0,49,47,96,155,156c123,67,184,110,264,186c196,185,333,421,403,695c38,148,49,354,24,469c-58,274-287,442-546,402
		c-122-19-226-76-336-186c-78-78-97-104-142-195c-128-261-181-550-168-935c3-104,9-211,12-236c5-40,3-50-17-68c-29-26-83-28-124-3
		c-37,23-239,203-548,489c-117,108-116,133,17,467c105,261,152,395,221,621c84,277,189,428,446,645c116,98,213,215,284,341
		c130,228,196,544,138,654C3799,11217,3672,11274,3553,11250z M3695,10975c31-30,32-66,4-165c-27-99-95-241-161-337
		c-50-74-278-313-297-313c-5,0,1,40,14,90c52,193,148,414,265,607C3606,11001,3644,11026,3695,10975z M4268,9287
		c133-61,213-263,184-463c-41-281-217-581-451-766c-114-92-246-151-265-120c-17,28-6,219,28,460c53,388,94,553,178,731
		C4024,9302,4128,9352,4268,9287z M1949,8784c118-30,207-77,245-132c41-59,41-137-2-244c-55-136-281-517-400-673
		c-72-94-229-251-317-318c-224-169-430-176-577-19c-57,60-91,126-119,229c-30,109-23,280,16,403c111,348,417,662,736,754
		C1665,8823,1791,8823,1949,8784z"/>
	<path class="st0" d="M7495,10713c-64-17-105-79-105-155c0-111,114-180,216-132c96,46,104,198,13,266
		C7592,10712,7530,10723,7495,10713z"/>
	<path class="st0" d="M10121,8033c-49-100-75-203-167-662c-106-533-153-730-223-941c-198-591-457-939-636-854
		c-80,38-112,129-145,409c-44,377-48,700-14,1034c16,160,11,196-33,231c-34,27-107,27-150,0c-71-43-130-187-188-460
		c-68-322-154-587-275-853c-74-163-112-226-174-289c-93-94-165-105-203-30c-16,34-18,67-18,387c1,376,2,392,70,1010
		c65,592,69,648,53,681c-17,37-74,59-125,49c-64-12-108-69-212-279c-112-228-173-328-309-508c-143-189-177-214-232-170
		c-20,16-24,32-31,123c-23,272-103,488-220,594c-107,96-213,137-359,137c-163,0-300-61-414-183c-120-130-167-235-256-577
		c-33-126-80-277-105-341c-55-134-93-277-130-496c-43-253-29-435,52-675c53-159,96-234,183-321c86-86,165-131,275-154
		c134-28,255-12,369,48c77,40,216,177,280,275c147,223,226,464,276,842c22,172,37,225,86,320c47,89,105,165,232,299
		c59,63,131,144,161,180l54,66l-9-190c-14-296-12-848,4-920c52-236,135-375,258-432c46-21,67-25,122-21c205,12,342,195,538,720
		c49,131,92,238,95,238s14-48,23-107c67-417,132-605,247-722c98-100,223-129,349-82c111,41,274,196,383,361c123,189,255,535,355,935
		c64,254,198,953,212,1105c8,84-3,247-18,262C10147,8077,10134,8059,10121,8033z M6625,7461c154-70,276-400,275-744
		c-1-148-31-193-160-237c-210-71-411-5-530,172c-56,84-80,169-80,282c0,214,90,392,244,485C6480,7482,6552,7495,6625,7461z
		 M6187,6187c150-78,288-90,475-43c118,31,142,27,154-21c17-67-54-407-115-553c-94-228-243-410-389-478c-75-34-163-29-224,14
		c-85,59-129,142-171,319c-18,77-21,121-22,305c0,227,7,285,61,513l26,107l69-64C6088,6251,6150,6207,6187,6187z"/>
	<path class="st0" d="M2360,7329c-246-30-481-154-667-353c-442-473-498-999-158-1506c131-195,276-339,599-594c99-77,232-184,295-236
		c64-53,231-188,371-300c371-298,483-418,605-652c108-206,154-389,162-633c4-144,2-189-16-294c-62-361-270-724-529-921
		c-91-69-248-145-357-172c-130-32-372-32-499,0c-297,75-527,275-691,602c-191,382-212,737-60,1058c121,256,284,403,496,448
		c310,66,625-150,721-493c25-92,29-239,9-322c-37-147-119-287-203-344c-111-76-214-73-383,13c-55,28-106,50-114,50
		c-19,0-7-62,27-130c56-112,178-169,340-156c197,14,348,72,447,172c62,62,130,191,165,314c31,108,39,315,15,413
		c-58,244-256,479-491,583c-296,131-698,75-930-129c-267-236-390-709-299-1148c59-286,216-579,416-778c350-350,800-456,1270-301
		c543,179,962,665,1090,1262c30,137,37,399,15,543c-46,296-193,587-422,833c-180,194-337,315-872,672c-422,282-574,395-725,540
		c-332,318-434,647-321,1038c138,475,542,784,958,732c376-47,692-312,747-627c27-160,44-193,94-193c99,0,112,207,25,376
		c-147,284-374,488-644,580C2705,7324,2501,7347,2360,7329z"/>
	<path class="st0" d="M4945,6977c-155-74-315-249-460-502c-32-55-132-245-222-422c-155-304-193-363-193-300c0,12,23,233,51,490
		c56,512,56,513-2,542c-65,34-168-1-239-82c-58-66-76-138-100-393c-37-388-104-921-175-1393c-19-125-35-247-35-272
		c0-84,34-122,119-132c61-7,113,10,145,48c27,31,31,45,66,199c30,132,85,265,275,669c236,502,324,673,463,896
		c86,139,212,314,232,325c31,16,59,11,85-15c23-22,25-32,25-112c0-48-5-153-10-233c-40-599-45-738-45-1130c1-372,9-464,60-679
		c43-181,93-241,200-241c88,0,232,102,372,261c108,125,210,295,189,316c-17,18-120-52-229-156c-65-61-128-113-142-117
		c-38-9-73,3-92,33c-16,25-18,58-17,358c0,331,3,385,49,805c47,431,56,651,34,861c-22,218-59,306-153,364c-42,25-61,30-125,33
		C5007,7000,4987,6997,4945,6977z"/>
</g>
</svg>
